# xmcd CD database file
#
# Track frame offsets:
#	182
#	43045
#	68470
#	112945
#	147295
#	180432
#	236232
#
# Disc length: 3737 seconds
#
# Revision: 0
# Processed by: cddbd v1.5.1PL0 Copyright (c) Steve Scherf et al.
# Submitted via: CDex 1.51
#
DISCID=570e9707
DTITLE=Von Freeman Quartet - Never Let Me Go
DYEAR=1992
DGENRE=Jazz
TTITLE0=I'll Remember April
TTITLE1=Never Let Me Go
TTITLE2=Alone Together
TTITLE3=In My Solitude
TTITLE4=I'll Follow You
TTITLE5=It Could Happen To You
TTITLE6=The End of a Love Affair
EXTD=YEAR: 1992
EXTT0=
EXTT1=
EXTT2=
EXTT3=
EXTT4=
EXTT5=
EXTT6=
PLAYORDER=
